<?xml version="1.0" encoding="UTF-8"?>
<!DOCTYPE svg PUBLIC "-//W3C//DTD SVG 1.1//EN" "http://www.w3.org/Graphics/SVG/1.1/DTD/svg11.dtd">
<svg xmlns="http://www.w3.org/2000/svg" version="1.1" width="512px" height="512px" style="shape-rendering:geometricPrecision; text-rendering:geometricPrecision; image-rendering:optimizeQuality; fill-rule:evenodd; clip-rule:evenodd" xmlns:xlink="http://www.w3.org/1999/xlink">
<g><path style="opacity:0.992" fill="#5f7c8a" d="M 9.5,-0.5 C 45.5,-0.5 81.5,-0.5 117.5,-0.5C 124.367,2.55833 127.701,7.89166 127.5,15.5C 84.8333,15.5 42.1667,15.5 -0.5,15.5C -0.5,13.5 -0.5,11.5 -0.5,9.5C 1.83333,5.16667 5.16667,1.83333 9.5,-0.5 Z"/></g>
<g><path style="opacity:0.992" fill="#5f7c8a" d="M 393.5,-0.5 C 429.5,-0.5 465.5,-0.5 501.5,-0.5C 505.833,1.83333 509.167,5.16667 511.5,9.5C 511.5,11.5 511.5,13.5 511.5,15.5C 468.833,15.5 426.167,15.5 383.5,15.5C 383.299,7.89166 386.633,2.55833 393.5,-0.5 Z"/></g>
<g><path style="opacity:1" fill="#546d79" d="M -0.5,15.5 C 42.1667,15.5 84.8333,15.5 127.5,15.5C 127.823,23.0193 124.49,28.186 117.5,31C 104.838,31.4999 92.1711,31.6666 79.5,31.5C 74.1667,31.5 68.8333,31.5 63.5,31.5C 63.5,40.5 63.5,49.5 63.5,58.5C 58.1383,58.4724 52.8049,58.8058 47.5,59.5C 47.5,50.1667 47.5,40.8333 47.5,31.5C 34.8289,31.6666 22.1623,31.4999 9.5,31C 4.98004,28.9777 1.6467,25.811 -0.5,21.5C -0.5,19.5 -0.5,17.5 -0.5,15.5 Z"/></g>
<g><path style="opacity:1" fill="#546d79" d="M 383.5,15.5 C 426.167,15.5 468.833,15.5 511.5,15.5C 511.5,17.5 511.5,19.5 511.5,21.5C 509.353,25.811 506.02,28.9777 501.5,31C 488.838,31.4999 476.171,31.6666 463.5,31.5C 458.167,31.5 452.833,31.5 447.5,31.5C 447.5,40.5 447.5,49.5 447.5,58.5C 442.138,58.4724 436.805,58.8058 431.5,59.5C 431.5,50.1667 431.5,40.8333 431.5,31.5C 418.829,31.6666 406.162,31.4999 393.5,31C 386.51,28.186 383.177,23.0193 383.5,15.5 Z"/></g>
<g><path style="opacity:0.994" fill="#ced7db" d="M 255.5,20.5 C 286.327,20.712 311.827,32.3786 332,55.5C 336.799,62.9316 341.966,70.0983 347.5,77C 352.345,80.4216 357.678,82.755 363.5,84C 378.163,84.4999 392.83,84.6666 407.5,84.5C 406.57,95.128 406.237,105.795 406.5,116.5C 406.235,127.538 406.568,138.538 407.5,149.5C 392.163,149.333 376.83,149.5 361.5,150C 352.811,152.166 346.144,156.999 341.5,164.5C 334.652,173.498 327.318,182.164 319.5,190.5C 300.99,205.673 279.657,213.339 255.5,213.5C 255.5,149.167 255.5,84.8333 255.5,20.5 Z"/></g>
<g><path style="opacity:1" fill="#b4bcc0" d="M 255.5,20.5 C 255.5,84.8333 255.5,149.167 255.5,213.5C 231.322,212.778 209.988,204.778 191.5,189.5C 183.711,181.388 176.711,172.721 170.5,163.5C 165.764,156.288 159.097,151.788 150.5,150C 135.837,149.5 121.17,149.333 106.5,149.5C 107.432,138.538 107.765,127.538 107.5,116.5C 107.763,105.795 107.43,95.128 106.5,84.5C 120.504,84.6666 134.504,84.4999 148.5,84C 157.383,82.7827 164.55,78.616 170,71.5C 188.809,38.5738 217.309,21.5738 255.5,20.5 Z"/></g>
<g><path style="opacity:0.991" fill="#607c8b" d="M 79.5,31.5 C 79.3336,40.5062 79.5002,49.5062 80,58.5C 93.2912,62.6246 102.125,71.2912 106.5,84.5C 107.43,95.128 107.763,105.795 107.5,116.5C 78.8333,116.5 50.1667,116.5 21.5,116.5C 21.3336,108.16 21.5003,99.8267 22,91.5C 24.0736,75.6745 32.5736,65.0078 47.5,59.5C 52.8049,58.8058 58.1383,58.4724 63.5,58.5C 63.5,49.5 63.5,40.5 63.5,31.5C 68.8333,31.5 74.1667,31.5 79.5,31.5 Z"/></g>
<g><path style="opacity:0.995" fill="#607c8b" d="M 463.5,31.5 C 463.334,40.5062 463.5,49.5062 464,58.5C 480.621,63.7912 489.954,75.1245 492,92.5C 492.5,100.493 492.666,108.493 492.5,116.5C 463.833,116.5 435.167,116.5 406.5,116.5C 406.237,105.795 406.57,95.128 407.5,84.5C 411.411,72.2558 419.411,63.9225 431.5,59.5C 436.805,58.8058 442.138,58.4724 447.5,58.5C 447.5,49.5 447.5,40.5 447.5,31.5C 452.833,31.5 458.167,31.5 463.5,31.5 Z"/></g>
<g><path style="opacity:1" fill="#546d79" d="M 21.5,116.5 C 50.1667,116.5 78.8333,116.5 107.5,116.5C 107.765,127.538 107.432,138.538 106.5,149.5C 99.0684,168.143 85.235,176.81 65,175.5C 45.6141,177.088 31.9474,169.088 24,151.5C 21.7348,139.96 20.9015,128.293 21.5,116.5 Z"/></g>
<g><path style="opacity:1" fill="#546d79" d="M 406.5,116.5 C 435.167,116.5 463.833,116.5 492.5,116.5C 496.598,164.271 475.265,183.105 428.5,173C 417.791,168.459 410.791,160.625 407.5,149.5C 406.568,138.538 406.235,127.538 406.5,116.5 Z"/></g>
<g><path style="opacity:0.984" fill="#607c8b" d="M 170.5,163.5 C 176.711,172.721 183.711,181.388 191.5,189.5C 162.528,206.655 133.528,223.822 104.5,241C 100.098,244.972 97.0982,249.805 95.5,255.5C 84.5,255.5 73.5,255.5 62.5,255.5C 64.2535,239.826 70.9202,226.659 82.5,216C 111.696,198.237 141.029,180.737 170.5,163.5 Z"/></g>
<g><path style="opacity:0.982" fill="#607c8b" d="M 341.5,164.5 C 370.802,181.151 399.802,198.318 428.5,216C 440.078,226.655 446.744,239.821 448.5,255.5C 437.5,255.5 426.5,255.5 415.5,255.5C 413.902,249.805 410.902,244.972 406.5,241C 377.773,223.638 348.773,206.805 319.5,190.5C 327.318,182.164 334.652,173.498 341.5,164.5 Z"/></g>
<g><path style="opacity:1" fill="#546d79" d="M 62.5,255.5 C 73.5,255.5 84.5,255.5 95.5,255.5C 95.7394,257.467 95.4061,259.301 94.5,261C 100.647,296.052 106.314,331.218 111.5,366.5C 111.646,377.353 106.313,383.02 95.5,383.5C 87.9735,383.82 82.8068,380.487 80,373.5C 73.5621,336.372 67.3954,299.206 61.5,262C 62.2865,259.901 62.6199,257.734 62.5,255.5 Z"/></g>
<g><path style="opacity:0.992" fill="#fea626" d="M 255.5,255.5 C 297.922,275.544 340.256,295.877 382.5,316.5C 383.298,316.957 383.631,317.624 383.5,318.5C 365.041,326.896 346.708,335.563 328.5,344.5C 304.296,331.898 279.962,319.565 255.5,307.5C 255.5,307.167 255.5,306.833 255.5,306.5C 255.5,289.5 255.5,272.5 255.5,255.5 Z"/></g>
<g><path style="opacity:1" fill="#546d79" d="M 415.5,255.5 C 426.5,255.5 437.5,255.5 448.5,255.5C 448.666,261.176 448.499,266.843 448,272.5C 442.441,306.19 436.774,339.856 431,373.5C 426.527,382.482 419.36,385.649 409.5,383C 402.209,379.921 398.876,374.421 399.5,366.5C 404.686,331.218 410.353,296.052 416.5,261C 415.594,259.301 415.261,257.467 415.5,255.5 Z"/></g>
<g><path style="opacity:1" fill="#dd9121" d="M 255.5,255.5 C 255.5,272.5 255.5,289.5 255.5,306.5C 237.883,298.358 220.55,289.692 203.5,280.5C 220.52,271.658 237.854,263.324 255.5,255.5 Z"/></g>
<g><path style="opacity:1" fill="#6b4b3e" d="M 203.5,280.5 C 220.55,289.692 237.883,298.358 255.5,306.5C 255.5,306.833 255.5,307.167 255.5,307.5C 255.5,314.167 255.5,320.833 255.5,327.5C 230.692,315.93 206.358,303.596 182.5,290.5C 189.374,286.896 196.374,283.563 203.5,280.5 Z"/></g>
<g><path style="opacity:1" fill="#de9121" d="M 182.5,290.5 C 206.358,303.596 230.692,315.93 255.5,327.5C 256.167,327.5 256.5,327.833 256.5,328.5C 255.503,345.325 255.17,362.325 255.5,379.5C 255.5,379.833 255.5,380.167 255.5,380.5C 213.082,359.291 170.416,338.624 127.5,318.5C 127.369,317.624 127.702,316.957 128.5,316.5C 146.522,307.822 164.522,299.155 182.5,290.5 Z"/></g>
<g><path style="opacity:1" fill="#7a5548" d="M 255.5,307.5 C 279.962,319.565 304.296,331.898 328.5,344.5C 328.833,365.844 328.5,387.177 327.5,408.5C 321.5,411.5 315.5,414.5 309.5,417.5C 308.833,396.004 308.167,374.671 307.5,353.5C 290.654,344.91 273.654,336.577 256.5,328.5C 256.5,327.833 256.167,327.5 255.5,327.5C 255.5,320.833 255.5,314.167 255.5,307.5 Z"/></g>
<g><path style="opacity:1" fill="#de9f43" d="M 127.5,318.5 C 170.416,338.624 213.082,359.291 255.5,380.5C 255.5,424.167 255.5,467.833 255.5,511.5C 254.833,511.5 254.167,511.5 253.5,511.5C 212.055,488.608 170.388,465.941 128.5,443.5C 127.5,401.839 127.167,360.172 127.5,318.5 Z"/></g>
<g><path style="opacity:0.995" fill="#fecb7f" d="M 383.5,318.5 C 383.833,360.172 383.5,401.839 382.5,443.5C 340.612,465.941 298.945,488.608 257.5,511.5C 256.833,511.5 256.167,511.5 255.5,511.5C 255.5,467.833 255.5,424.167 255.5,380.5C 255.5,380.167 255.5,379.833 255.5,379.5C 272.599,371.785 289.599,363.785 306.5,355.5C 307.298,355.043 307.631,354.376 307.5,353.5C 308.167,374.671 308.833,396.004 309.5,417.5C 315.5,414.5 321.5,411.5 327.5,408.5C 328.5,387.177 328.833,365.844 328.5,344.5C 346.708,335.563 365.041,326.896 383.5,318.5 Z"/></g>
<g><path style="opacity:0.998" fill="#fea626" d="M 256.5,328.5 C 273.654,336.577 290.654,344.91 307.5,353.5C 307.631,354.376 307.298,355.043 306.5,355.5C 289.599,363.785 272.599,371.785 255.5,379.5C 255.17,362.325 255.503,345.325 256.5,328.5 Z"/></g>
</svg>
